<?xml version="1.0" standalone="no"?>
<!DOCTYPE svg PUBLIC "-//W3C//DTD SVG 20010904//EN"
 "http://www.w3.org/TR/2001/REC-SVG-20010904/DTD/svg10.dtd">
<svg version="1.0" xmlns="http://www.w3.org/2000/svg"
 width="512.000000pt" height="512.000000pt" viewBox="0 0 512.000000 512.000000"
 preserveAspectRatio="xMidYMid meet">

<g transform="translate(0.000000,512.000000) scale(0.100000,-0.100000)"
fill="#000000" stroke="none">
<path d="M814 4670 c-63 -26 -84 -115 -40 -167 l24 -28 294 -5 293 -5 5 -1390
5 -1390 33 -68 c59 -120 174 -209 306 -237 34 -7 413 -9 1154 -8 l1104 3 29
33 c55 61 30 150 -49 172 -24 6 -410 10 -1124 10 -742 0 -1096 3 -1115 11 -40
15 -92 67 -114 114 -13 28 -19 63 -19 118 l0 78 1139 -1 c1020 -1 1142 1 1164
15 26 17 47 55 47 86 0 10 95 397 210 859 116 462 210 849 210 860 0 11 -15
37 -34 58 l-34 37 -1351 3 -1351 2 0 334 c0 222 -4 344 -11 367 -18 51 -55 97
-102 122 -41 21 -52 22 -347 24 -168 1 -315 -2 -326 -7z m3306 -1067 c0 -5
-82 -340 -182 -745 l-183 -738 -1077 0 -1078 0 0 745 0 745 1260 0 c693 0
1260 -3 1260 -7z"/>
<path d="M2734 3390 c-12 -4 -31 -21 -43 -36 -20 -25 -21 -38 -21 -205 l0
-179 -181 0 -181 0 -34 -34 c-47 -47 -47 -95 0 -142 l34 -34 181 0 181 0 0
-180 0 -180 28 -30 c50 -57 146 -42 172 26 6 14 10 102 10 195 l0 169 179 0
c164 0 180 2 204 20 38 30 52 80 34 123 -27 63 -41 67 -239 67 l-178 0 0 169
c0 93 -4 181 -10 195 -11 29 -65 66 -95 65 -11 0 -30 -4 -41 -9z"/>
<path d="M2071 1179 c-69 -12 -162 -61 -207 -112 -20 -22 -50 -69 -67 -106
-27 -57 -31 -76 -30 -146 1 -155 75 -270 221 -342 72 -36 81 -38 171 -38 85 0
103 3 153 28 77 38 145 107 182 187 26 56 30 76 30 150 1 71 -4 94 -26 142
-38 81 -73 124 -138 168 -90 61 -189 85 -289 69z m149 -235 c58 -23 85 -66 85
-135 0 -95 -56 -149 -153 -149 -108 0 -162 51 -162 152 0 50 4 62 31 93 47 54
124 69 199 39z"/>
<path d="M3460 1178 c-118 -18 -225 -102 -278 -216 -22 -48 -27 -71 -27 -147
0 -77 4 -98 27 -148 36 -77 67 -113 142 -165 79 -56 148 -76 241 -70 131 9
251 88 311 205 27 53 29 66 29 163 -1 125 -18 172 -92 251 -97 104 -221 148
-353 127z m132 -228 c20 -6 50 -26 67 -46 27 -30 31 -42 31 -92 0 -103 -53
-152 -162 -152 -91 0 -142 45 -153 135 -8 68 15 112 75 143 48 24 86 27 142
12z"/>
</g>
</svg>
