<?xml version="1.0" standalone="no"?>
<!DOCTYPE svg PUBLIC "-//W3C//DTD SVG 20010904//EN"
 "http://www.w3.org/TR/2001/REC-SVG-20010904/DTD/svg10.dtd">
<svg version="1.0" xmlns="http://www.w3.org/2000/svg"
 width="512.000000pt" height="512.000000pt" viewBox="0 0 512.000000 512.000000"
 preserveAspectRatio="xMidYMid meet">

<g transform="translate(0.000000,512.000000) scale(0.100000,-0.100000)"
fill="#000000" stroke="none">
<path d="M725 4621 c-230 -35 -267 -53 -410 -196 -146 -146 -224 -290 -268
-495 -18 -82 -21 -130 -21 -345 0 -230 2 -261 27 -386 119 -607 443 -1194 946
-1712 696 -718 1566 -1112 2330 -1057 320 24 510 105 701 300 125 127 148 172
173 330 l21 130 276 0 c157 0 302 5 335 11 115 21 210 91 261 191 l24 47 0
1276 0 1276 -24 48 c-33 65 -123 145 -191 170 -56 21 -61 21 -1785 21 l-1729
0 -73 143 c-142 278 -212 307 -593 248z m323 -145 c15 -8 37 -25 48 -38 12
-12 110 -200 218 -415 210 -421 218 -442 181 -513 -15 -29 -94 -100 -111 -100
-11 0 -143 205 -234 364 -115 201 -338 679 -324 695 7 8 86 18 142 20 29 0 65
-5 80 -13z m-368 -83 c108 -290 291 -648 492 -963 l80 -125 -43 -35 c-167
-133 -177 -187 -79 -410 184 -419 553 -846 970 -1125 213 -143 471 -265 557
-265 66 1 115 31 179 111 32 41 59 76 60 77 1 2 35 -19 76 -46 245 -165 665
-387 931 -492 124 -49 137 -57 137 -79 0 -44 -42 -113 -114 -189 -162 -170
-322 -240 -606 -262 -583 -46 -1237 195 -1847 682 -697 556 -1182 1341 -1279
2069 -20 153 -15 442 11 563 33 158 108 297 221 410 90 90 146 123 226 135 4
1 16 -25 28 -56z m4166 -334 c10 -17 -1660 -1684 -1712 -1709 -49 -24 -82 -25
-132 -5 -26 11 -234 213 -689 668 -359 358 -653 657 -653 664 0 6 -43 97 -95
202 l-95 191 1685 0 c1229 0 1686 -3 1691 -11z m128 -151 c3 -13 6 -547 6
-1188 l0 -1165 -600 600 -600 600 587 587 c324 324 591 588 594 588 4 0 9 -10
13 -22z m-2974 -803 l345 -345 -280 -280 -280 -281 -62 66 c-89 93 -207 243
-283 360 -116 180 -222 409 -207 448 3 8 83 76 179 150 113 89 183 152 203
181 17 25 32 46 35 46 3 0 160 -155 350 -345z m675 -675 c243 -243 261 -255
390 -254 129 0 147 12 390 254 l210 210 620 -620 c340 -340 617 -621 615 -623
-3 -3 -21 -13 -40 -23 -31 -17 -64 -19 -321 -22 l-286 -3 -7 58 c-3 32 -17 82
-31 110 -45 99 -77 120 -530 348 l-418 210 -82 0 c-74 0 -89 -3 -151 -35 -65
-33 -75 -44 -209 -214 -78 -99 -148 -184 -157 -189 -18 -12 -84 12 -232 85
-164 82 -355 210 -489 329 l-49 42 274 274 c150 150 277 273 283 273 6 0 104
-94 220 -210z m944 -711 c218 -111 405 -209 415 -218 10 -9 28 -36 38 -59 18
-40 19 -51 8 -128 -14 -99 5 -97 -175 -22 -158 66 -390 180 -542 267 -130 75
-363 223 -363 231 0 15 88 105 114 116 71 31 85 26 505 -187z"/>
</g>
</svg>
