<?xml version="1.0" standalone="no"?>
<!DOCTYPE svg PUBLIC "-//W3C//DTD SVG 20010904//EN"
 "http://www.w3.org/TR/2001/REC-SVG-20010904/DTD/svg10.dtd">
<svg version="1.0" xmlns="http://www.w3.org/2000/svg"
 width="128.000000pt" height="128.000000pt" viewBox="0 0 128.000000 128.000000"
 preserveAspectRatio="xMidYMid meet">

<g transform="translate(0.000000,128.000000) scale(0.100000,-0.100000)"
fill="#000000" stroke="none">
<path d="M226 1184 c-153 -56 -247 -233 -218 -409 19 -116 78 -209 219 -346
146 -144 390 -349 413 -349 23 0 267 205 413 349 141 137 200 230 219 346 27
164 -52 329 -192 398 -61 30 -184 36 -246 12 -59 -23 -133 -83 -164 -133 -28
-47 -36 -51 -45 -22 -11 35 -103 120 -157 145 -42 20 -68 25 -128 24 -41 0
-93 -7 -114 -15z m209 -78 c63 -30 105 -74 147 -156 27 -53 38 -65 58 -65 20
0 31 12 58 65 42 82 84 126 147 156 118 56 252 7 320 -117 27 -49 30 -62 30
-149 0 -85 -3 -101 -29 -153 -16 -31 -54 -87 -83 -122 -65 -79 -418 -390 -443
-390 -25 0 -378 311 -443 390 -29 35 -67 91 -83 122 -26 52 -29 68 -29 153 0
87 3 100 30 149 69 124 202 173 320 117z"/>
</g>
</svg>
